<?xml version="1.0" encoding="UTF-8" standalone="no"?>
<svg
   xmlns:dc="http://purl.org/dc/elements/1.1/"
   xmlns:cc="http://creativecommons.org/ns#"
   xmlns:rdf="http://www.w3.org/1999/02/22-rdf-syntax-ns#"
   xmlns:svg="http://www.w3.org/2000/svg"
   xmlns="http://www.w3.org/2000/svg"
   xmlns:sodipodi="http://sodipodi.sourceforge.net/DTD/sodipodi-0.dtd"
   xmlns:inkscape="http://www.inkscape.org/namespaces/inkscape"
   version="1.0"
   width="500.000000pt"
   height="500.000000pt"
   viewBox="0 0 500.000000 500.000000"
   preserveAspectRatio="xMidYMid meet"
   id="svg1045"
   sodipodi:docname="logo-datdot.svg"
   inkscape:version="0.92.5 (2060ec1f9f, 2020-04-08)">
  <metadata
     id="metadata1051">
    <rdf:RDF>
      <cc:Work
         rdf:about="">
        <dc:format>image/svg+xml</dc:format>
        <dc:type
           rdf:resource="http://purl.org/dc/dcmitype/StillImage" />
        <dc:title></dc:title>
      </cc:Work>
    </rdf:RDF>
  </metadata>
  <defs
     id="defs1049" />
  <sodipodi:namedview
     pagecolor="#ffffff"
     bordercolor="#666666"
     borderopacity="1"
     objecttolerance="10"
     gridtolerance="10"
     guidetolerance="10"
     inkscape:pageopacity="0"
     inkscape:pageshadow="2"
     inkscape:window-width="2560"
     inkscape:window-height="1380"
     id="namedview1047"
     showgrid="false"
     inkscape:zoom="1.6801172"
     inkscape:cx="333.33333"
     inkscape:cy="333.33333"
     inkscape:window-x="0"
     inkscape:window-y="0"
     inkscape:window-maximized="1"
     inkscape:current-layer="g1043" />
  <g
     transform="translate(0.000000,500.000000) scale(0.100000,-0.100000)"
     fill="#000000"
     stroke="none"
     id="g1043">
    <path
       d="M2332 4994 c-13 -3 -22 -9 -20 -12 2 -4 28 -51 58 -104 l55 -98 131 0 132 0 55 98 c54 94 55 97 34 105 -25 10 -410 19 -445 11z"
       id="path985" />
    <path
       d="M2975 4506 l-66 -114 64 -108 63 -109 131 -3 131 -3 55 93 c30 51 59 102 65 113 8 17 -1 39 -55 133 l-66 112 -128 0 -127 0 -67 -114z"
       id="path987" />
    <path
       d="M1766 4558 c-7 -13 -37 -63 -66 -112 l-52 -89 26 -46 c15 -25 43 -76 64 -113 l37 -68 132 0 131 0 61 108 c34 60 61 113 61 117 0 5 -28 58 -62 117 l-62 108 -128 0 c-121 0 -128 -1 -142 -22z"
       id="path989" />
    <path
       d="M762 4294 c-67 -64 -122 -122 -122 -130 0 -11 16 -14 69 -14 80 0 72 -7 155 138 45 80 53 111 30 119 -6 2 -65 -49 -132 -113z"
       id="path991" />
    <path
       d="M4130 4388 c0 -3 28 -54 63 -114 l63 -109 52 -3 c29 -2 52 1 52 5 0 5 -39 47 -87 94 -101 97 -143 135 -143 127z"
       id="path993" />
    <path
       d="M3648 3993 c-23 -27 -118 -199 -118 -213 0 -14 95 -186 118 -212 13 -15 33 -18 138 -18 l122 0 66 115 66 115 -66 115 -66 115 -122 0 c-105 0 -125 -3 -138 -17z"
       id="path995" />
    <path
       d="M1163 3958 c-17 -22 -123 -206 -123 -214 0 -4 27 -56 61 -116 l61 -108 132 0 132 0 63 111 64 111 -24 42 c-13 22 -42 73 -64 111 l-42 70 -125 3 c-92 2 -128 -1 -135 -10z"
       id="path997" />
    <path
       d="M2325 3856 l-66 -114 63 -108 63 -109 132 -3 131 -3 55 93 c30 51 59 102 65 113 8 17 -1 39 -55 133 l-66 112 -128 0 -127 0 -67 -114z"
       id="path999" />
    <path
       d="M4201 3284 c-33 -58 -61 -111 -61 -117 0 -5 28 -59 63 -119 l62 -108 129 2 129 3 42 70 c22 39 52 89 64 112 l24 41 -64 111 -64 111 -131 0 -131 0 -62 -106z"
       id="path1001" />
    <path
       d="M1739 3288 c-23 -40 -53 -92 -66 -115 l-25 -43 65 -112 65 -113 128 0 129 0 40 67 c22 37 51 87 65 112 l25 46 -25 46 c-14 25 -43 75 -65 112 l-40 67 -127 3 -127 3 -42 -73z"
       id="path1003" />
    <path
       d="M2998 3343 c-23 -27 -118 -199 -118 -213 0 -14 95 -186 118 -212 13 -15 33 -18 138 -18 l122 0 66 115 66 115 -66 115 -66 115 -122 0 c-105 0 -125 -3 -138 -17z"
       id="path1005" />
    <path
       d="M494 3218 c-33 -57 -60 -108 -62 -115 -2 -6 25 -61 60 -122 l63 -111 130 2 129 3 41 70 c23 39 52 89 64 111 l24 42 -64 111 -63 111 -132 0 -132 0 -58 -102z"
       id="path1007" />
    <path
       d="M4820 2684 c-30 -53 -59 -105 -63 -114 -7 -13 8 -47 55 -129 l63 -111 56 0 c43 0 58 4 63 16 8 20 6 265 -3 359 l-6 70 -55 3 -55 3 -55 -97z"
       id="path1009" />
    <path
       d="M2322 2628 l-62 -111 64 -111 64 -111 129 -3 130 -3 65 113 66 113 -23 40 c-12 22 -41 73 -64 113 l-42 72 -132 0 -132 -1 -63 -111z"
       id="path1011" />
    <path
       d="M3551 2634 c-33 -58 -61 -111 -61 -117 0 -5 28 -59 63 -119 l62 -108 129 2 129 3 42 70 c22 39 52 89 64 112 l24 41 -64 111 -64 111 -131 0 -131 0 -62 -106z"
       id="path1013" />
    <path
       d="M1110 2613 c-30 -53 -59 -104 -63 -113 -7 -13 8 -47 55 -129 l63 -111 130 0 131 0 62 108 c34 59 62 112 62 117 0 5 -28 58 -62 117 l-62 108 -131 0 -130 0 -55 -97z"
       id="path1015" />
    <path
       d="M6 2659 c-7 -39 -6 -271 3 -359 l6 -65 80 0 79 0 63 105 c34 58 62 112 62 120 0 8 -28 62 -62 120 l-63 105 -81 3 -80 3 -7 -32z"
       id="path1017" />
    <path
       d="M2940 2023 c-35 -59 -63 -112 -63 -118 0 -5 28 -59 63 -118 l63 -108 130 3 131 3 63 110 62 109 -36 66 c-20 36 -49 85 -63 110 l-26 45 -131 3 -130 3 -63 -108z"
       id="path1019" />
    <path
       d="M4170 2033 c-30 -53 -59 -104 -63 -113 -7 -13 8 -47 55 -129 l63 -111 130 0 131 0 62 109 c34 60 62 112 62 116 0 4 -28 56 -62 116 l-62 109 -131 0 -130 0 -55 -97z"
       id="path1021" />
    <path
       d="M1739 2028 c-23 -40 -53 -92 -66 -114 l-24 -42 64 -108 63 -109 131 -3 131 -3 64 112 65 111 -65 114 -64 114 -129 0 -128 0 -42 -72z"
       id="path1023" />
    <path
       d="M462 1959 l-62 -112 64 -111 64 -111 129 -3 130 -3 65 115 65 114 -62 108 -63 109 -133 2 -134 3 -63 -111z"
       id="path1025" />
    <path
       d="M3552 1411 c-34 -59 -62 -113 -62 -119 0 -5 27 -58 61 -116 l61 -106 131 0 132 0 55 97 c30 53 59 103 63 112 6 12 -11 49 -56 126 l-63 110 -130 3 -130 3 -62 -110z"
       id="path1027" />
    <path
       d="M2388 1473 c-9 -10 -40 -62 -71 -115 l-56 -97 63 -108 62 -108 134 0 134 0 63 107 63 107 -66 116 -67 115 -122 0 c-104 0 -124 -3 -137 -17z"
       id="path1029" />
    <path
       d="M1079 1353 c-34 -60 -62 -112 -62 -118 0 -5 28 -59 63 -118 l63 -108 129 3 130 3 64 109 c72 125 74 98 -17 252 l-50 84 -128 0 -129 0 -63 -107z"
       id="path1031" />
    <path
       d="M4217 888 c-44 -71 -117 -201 -117 -209 0 -5 9 -23 20 -41 l19 -32 141 142 c77 78 140 146 140 152 0 6 -36 10 -95 10 -87 0 -96 -2 -108 -22z"
       id="path1033" />
    <path
       d="M2941 766 c-34 -58 -61 -110 -61 -116 0 -11 79 -154 113 -203 l19 -28 125 3 125 3 65 112 65 113 -64 110 -63 110 -132 0 -131 0 -61 -104z"
       id="path1035" />
    <path
       d="M630 842 c0 -7 157 -163 228 -227 32 -28 34 -29 47 -12 11 16 5 32 -52 133 l-65 114 -79 0 c-44 0 -79 -3 -79 -8z"
       id="path1037" />
    <path
       d="M1692 741 c-34 -59 -62 -113 -62 -119 0 -5 28 -58 61 -116 l62 -106 131 0 131 1 63 110 63 111 -63 111 -63 112 -131 3 -130 3 -62 -110z"
       id="path1039" />
    <path
       d="M2363 228 c-29 -38 -124 -211 -118 -216 9 -9 491 -9 500 0 4 3 -22 55 -57 115 l-64 108 -125 3 c-93 2 -129 -1 -136 -10z"
       id="path1041" />
  </g>
</svg>
